#N canvas 672 94 619 495 10;
#X declare -lib mrpeach;
#X obj 22 62 import mrpeach;
#N canvas 192 0 1163 709 extrovert-gui 1;
#X restore 22 162 pd extrovert-gui;
#N canvas 100 73 676 526 extrovert-gui-sender 1;
#X msg 66 154 vis 1 \, clear;
#X obj 53 56 list trim;
#X text 69 139 Clear old GUI;
#X msg 327 86 myCanvas \, clear;
#X obj 63 277 unpack s f f f f f f;
#X obj 99 362 f;
#X obj 144 362 f;
#X obj 55 449 s;
#X msg 99 411 color \$1 \$2;
#X obj 99 386 pack 0 0;
#X obj 31 312 t b b s;
#X msg 280 117 obj 1 1 cnv 15 200 100 myCanvas myCanvasR Canvas_Demo
20 12 2 14 -526347 20;
#X text 297 152 TESTING CODE TESTING CODE REMOVE ME AAAA;
#X obj 53 33 r extrovert-gui-object;
#X text 52 15 Receive GUI objects sent by extrovert-gui-generator;
#X obj 66 109 r extrovert-gui-bang;
#X obj 53 184 s pd-extrovert-gui;
#X obj 63 250 r extrovert-color-out;
#X obj 82 312 extrovert-makecolor;
#X obj 207 312 extrovert-makecolor;
#X connect 0 0 16 0;
#X connect 1 0 16 0;
#X connect 4 0 10 0;
#X connect 4 1 18 0;
#X connect 4 2 18 1;
#X connect 4 3 18 2;
#X connect 4 4 19 0;
#X connect 4 5 19 1;
#X connect 4 6 19 2;
#X connect 5 0 9 0;
#X connect 6 0 9 1;
#X connect 8 0 7 0;
#X connect 9 0 8 0;
#X connect 10 0 5 0;
#X connect 10 1 6 0;
#X connect 10 2 7 1;
#X connect 13 0 1 0;
#X connect 15 0 0 0;
#X connect 17 0 4 0;
#X connect 18 0 5 1;
#X connect 19 0 6 1;
#X restore 22 181 pd extrovert-gui-sender;
#N canvas 327 0 639 709 extrovert-lua-holder 1;
#X obj 357 185 r extrovert-midiread-results;
#N canvas 210 207 450 408 extrovert-clock-in 0;
#X obj 125 18 midirealtimein;
#X obj 183 161 + 1;
#X obj 152 161 f 0;
#X obj 183 184 moses 96;
#X obj 228 207 t b b;
#X msg 305 125 0;
#X obj 152 78 route 248 250 252;
#X obj 125 48 t f f;
#X obj 125 309 outlet;
#X obj 228 309 outlet;
#X connect 0 0 7 0;
#X connect 1 0 3 0;
#X connect 2 0 1 0;
#X connect 3 0 2 1;
#X connect 3 1 4 0;
#X connect 4 0 9 0;
#X connect 4 1 5 0;
#X connect 5 0 2 1;
#X connect 6 0 2 0;
#X connect 6 1 5 0;
#X connect 7 0 8 0;
#X connect 7 1 6 0;
#X restore 312 207 pd extrovert-clock-in;
#X obj 246 325 extrovert-sequencer;
#X obj 14 31 keyname;
#X symbolatom 53 54 10 0 0 0 - - -;
#X floatatom 14 54 3 0 0 0 - - -;
#X obj 14 76 pack f s;
#X connect 0 0 2 5;
#X connect 1 0 2 3;
#X connect 1 1 2 4;
#X connect 3 0 5 0;
#X connect 3 1 4 0;
#X connect 4 0 6 1;
#X connect 5 0 6 0;
#X connect 6 0 2 0;
#X restore 22 226 pd extrovert-lua-holder;
#N canvas 44 41 797 620 extrovert-midifile-reader 1;
#X obj 218 143 midifile;
#X msg 86 102 track -1;
#X msg 240 342 list TICK \$1;
#X msg 263 367 list FILE_END;
#X msg 242 102 bang;
#X obj 149 221 list length;
#X obj 104 186 t l l;
#X obj 122 332 list append 0;
#X obj 182 247 == 2;
#X obj 104 285 spigot 0;
#X msg 104 367 list COMMAND \$1 \$2 \$3;
#X obj 532 3 str join .mid;
#X obj 454 3 symbol;
#X obj 505 -27 t b s;
#X obj 454 27 str join /;
#X obj 487 51 str join;
#X obj 487 76 str to_symbol;
#X obj 487 100 t b s;
#X obj 96 27 symbol;
#X obj 86 0 t b f;
#X text 466 122 alternate filename-join code;
#X obj 122 308 spigot 0;
#X obj 149 247 != 2;
#X text 33 395 noteoffs have 0 as 3rd byte...;
#X text 25 417 convert to proper noteoffs in Lua;
#X obj 86 -48 r extrovert-midiread-commands;
#X obj 86 -24 route FILENUM DIRNAME NEXTITEM;
#X obj 86 78 t b l;
#X obj 240 407 s extrovert-midiread-commands;
#X msg 146 102 read \$1/\$2.mid;
#X obj 86 54 pack s f;
#X connect 0 0 6 0;
#X connect 0 1 2 0;
#X connect 0 2 3 0;
#X connect 1 0 0 0;
#X connect 2 0 28 0;
#X connect 3 0 28 0;
#X connect 4 0 0 0;
#X connect 5 0 8 0;
#X connect 5 0 22 0;
#X connect 6 0 9 0;
#X connect 6 0 21 0;
#X connect 6 1 5 0;
#X connect 7 0 10 0;
#X connect 8 0 21 1;
#X connect 9 0 10 0;
#X connect 10 0 28 0;
#X connect 11 0 15 1;
#X connect 12 0 14 0;
#X connect 13 0 12 0;
#X connect 13 1 11 0;
#X connect 14 0 15 0;
#X connect 15 0 16 0;
#X connect 16 0 17 0;
#X connect 18 0 30 0;
#X connect 19 0 18 0;
#X connect 19 1 30 1;
#X connect 21 0 7 0;
#X connect 22 0 9 1;
#X connect 25 0 26 0;
#X connect 26 0 19 0;
#X connect 26 1 18 1;
#X connect 26 2 4 0;
#X connect 27 0 1 0;
#X connect 27 1 29 0;
#X connect 29 0 0 0;
#X connect 30 0 27 0;
#X restore 22 295 pd extrovert-midifile-reader;
#N canvas 579 10 604 410 extrovert-midifile-writer 1;
#X obj 125 57 list trim;
#X obj 125 131 symbol;
#X obj 125 157 pack s s;
#X msg 170 131 symbol \$1.mid;
#X obj 125 106 t b f;
#X obj 309 106 list trim;
#X obj 125 33 r extrovert-midiwrite-commands;
#X obj 263 222 midifile;
#X msg 241 183 flush;
#X obj 125 81 route FILENUM DIRNAME SAVE NEXTTICK MSG;
#X msg 125 183 write \$1/\$2 0 24;
#X connect 0 0 9 0;
#X connect 1 0 2 0;
#X connect 2 0 10 0;
#X connect 3 0 2 1;
#X connect 4 0 1 0;
#X connect 4 1 3 0;
#X connect 5 0 7 0;
#X connect 6 0 0 0;
#X connect 8 0 7 0;
#X connect 9 0 4 0;
#X connect 9 1 1 1;
#X connect 9 2 8 0;
#X connect 9 3 7 0;
#X connect 9 4 5 0;
#X connect 10 0 7 0;
#X restore 22 314 pd extrovert-midifile-writer;
#N canvas 481 65 497 447 extrovert-midi-in-out 1;
#X restore 23 357 pd extrovert-midi-in-out;
