#N canvas 672 94 619 495 10;
#X declare -lib mrpeach;
#X obj 22 283 import mrpeach;
#N canvas 192 0 1163 709 extrovert-gui 1;
#X restore 22 322 pd extrovert-gui;
#N canvas 100 73 507 526 extrovert-gui-sender 1;
#X msg 66 154 vis 1 \, clear;
#X obj 53 56 list trim;
#X text 69 139 Clear old GUI;
#X obj 63 277 unpack s f f f f f f;
#X obj 99 362 f;
#X obj 144 362 f;
#X obj 55 449 s;
#X msg 99 411 color \$1 \$2;
#X obj 99 386 pack 0 0;
#X obj 31 312 t b b s;
#X obj 53 33 r extrovert-gui-object;
#X text 52 15 Receive GUI objects sent by extrovert-gui-generator;
#X obj 66 109 r extrovert-gui-bang;
#X obj 53 184 s pd-extrovert-gui;
#X obj 63 250 r extrovert-color-out;
#X obj 82 312 extrovert-makecolor;
#X obj 207 312 extrovert-makecolor;
#X connect 0 0 13 0;
#X connect 1 0 13 0;
#X connect 3 0 9 0;
#X connect 3 1 15 0;
#X connect 3 2 15 1;
#X connect 3 3 15 2;
#X connect 3 4 16 0;
#X connect 3 5 16 1;
#X connect 3 6 16 2;
#X connect 4 0 8 0;
#X connect 5 0 8 1;
#X connect 7 0 6 0;
#X connect 8 0 7 0;
#X connect 9 0 4 0;
#X connect 9 1 5 0;
#X connect 9 2 6 1;
#X connect 10 0 1 0;
#X connect 12 0 0 0;
#X connect 14 0 3 0;
#X connect 15 0 4 1;
#X connect 16 0 5 1;
#X restore 22 341 pd extrovert-gui-sender;
#N canvas 562 3 577 401 extrovert-lua-holder 1;
#X obj 257 232 r extrovert-midiread-results;
#X obj 146 265 extrovert-sequencer;
#X obj 146 60 keyname;
#X symbolatom 185 83 10 0 0 0 - - -;
#X floatatom 146 83 3 0 0 0 - - -;
#X obj 146 105 pack f s;
#X obj 229 209 r extrovert-tempo-tick;
#X obj 201 186 r extrovert-monome-dials;
#X obj 173 163 r extrovert-monome-buttons;
#X connect 0 0 1 4;
#X connect 2 0 4 0;
#X connect 2 1 3 0;
#X connect 3 0 5 1;
#X connect 4 0 5 0;
#X connect 5 0 1 0;
#X connect 6 0 1 3;
#X connect 7 0 1 2;
#X connect 8 0 1 1;
#X restore 22 360 pd extrovert-lua-holder;
#N canvas 44 2 1207 579 extrovert-midifile-reader 1;
#X obj 213 151 midifile;
#X msg 81 110 track -1;
#X msg 235 350 list TICK \$1;
#X msg 278 375 list FILE_END;
#X msg 237 110 bang;
#X obj 144 229 list length;
#X obj 99 194 t l l;
#X obj 117 340 list append 0;
#X obj 177 255 == 2;
#X obj 99 293 spigot 0;
#X msg 99 375 list COMMAND \$1 \$2 \$3;
#X obj 521 -4 str join .mid;
#X obj 443 -4 symbol;
#X obj 494 -34 t b s;
#X obj 443 20 str join /;
#X obj 476 44 str join;
#X obj 476 69 str to_symbol;
#X obj 476 93 t b s;
#X obj 91 35 symbol;
#X obj 81 8 t b f;
#X text 455 115 alternate filename-join code;
#X obj 117 316 spigot 0;
#X obj 144 255 != 2;
#X text 28 403 noteoffs have 0 as 3rd byte...;
#X text 20 425 convert to proper noteoffs in Lua;
#X obj 81 -40 r extrovert-midiread-commands;
#X obj 81 -16 route FILENUM DIRNAME NEXTITEM;
#X obj 81 86 t b l;
#X msg 141 110 read \$1/\$2.mid;
#X obj 81 62 pack s f;
#X obj 235 415 s extrovert-midiread-results;
#X obj 731 211 route end time_sig microsec_per_quarternote key_sig
;
#X obj 278 188 route bang format tracks ticks_per_quarternote seq_num
name;
#X floatatom 336 211 3 0 0 0 - - -;
#X text 327 225 format;
#X floatatom 395 211 5 0 0 0 - - -;
#X text 390 225 tracks;
#X floatatom 453 211 5 0 0 0 - - -;
#X text 456 225 TPQ;
#X text 439 236 (auto 24);
#X floatatom 512 211 5 0 0 0 - - -;
#X text 507 225 seqnum;
#X obj 570 211 unpack 0 s;
#X floatatom 570 234 5 0 0 0 - - -;
#X obj 627 234 prepend set;
#X symbolatom 627 257 10 0 0 0 - - -;
#X msg 445 375 list NEXT_ITEM;
#X obj 721 238 unpack 0 0;
#X floatatom 721 261 5 0 0 0 - - -;
#X floatatom 755 261 7 0 0 0 - - -;
#X obj 806 238 unpack 0 0 0 0;
#X floatatom 806 261 3 0 0 1 / - -;
#X floatatom 837 261 3 0 0 1 - - -;
#X floatatom 860 261 5 0 0 1 clocks_per_click - -;
#X floatatom 887 281 5 0 0 1 32nds_per_quarternote - -;
#X msg 712 375 list MS_PER_QUARTER_NOTE;
#X obj 958 308 unpack 0 0 s;
#X symbolatom 1039 413 10 0 0 0 key - -;
#X obj 1039 387 prepend set;
#X floatatom 958 337 5 0 0 1 +sharps/-flats - -;
#X obj 998 366 tgl 15 0 empty empty minor 17 7 0 10 -262144 -1 -1 0
1;
#X connect 0 0 6 0;
#X connect 0 1 2 0;
#X connect 0 2 32 0;
#X connect 1 0 0 0;
#X connect 2 0 30 0;
#X connect 3 0 30 0;
#X connect 4 0 0 0;
#X connect 5 0 8 0;
#X connect 5 0 22 0;
#X connect 6 0 9 0;
#X connect 6 0 21 0;
#X connect 6 1 5 0;
#X connect 7 0 10 0;
#X connect 8 0 21 1;
#X connect 9 0 10 0;
#X connect 10 0 30 0;
#X connect 11 0 15 1;
#X connect 12 0 14 0;
#X connect 13 0 12 0;
#X connect 13 1 11 0;
#X connect 14 0 15 0;
#X connect 15 0 16 0;
#X connect 16 0 17 0;
#X connect 18 0 29 0;
#X connect 19 0 18 0;
#X connect 19 1 29 1;
#X connect 21 0 7 0;
#X connect 22 0 9 1;
#X connect 25 0 26 0;
#X connect 26 0 19 0;
#X connect 26 1 18 1;
#X connect 26 2 4 0;
#X connect 27 0 1 0;
#X connect 27 1 28 0;
#X connect 28 0 0 0;
#X connect 29 0 27 0;
#X connect 31 0 47 0;
#X connect 31 1 50 0;
#X connect 31 2 55 0;
#X connect 31 3 56 0;
#X connect 32 0 3 0;
#X connect 32 1 33 0;
#X connect 32 2 35 0;
#X connect 32 3 37 0;
#X connect 32 4 40 0;
#X connect 32 5 42 0;
#X connect 32 6 31 0;
#X connect 33 0 46 0;
#X connect 35 0 46 0;
#X connect 37 0 46 0;
#X connect 40 0 46 0;
#X connect 42 0 43 0;
#X connect 42 1 44 0;
#X connect 43 0 46 0;
#X connect 44 0 45 0;
#X connect 46 0 30 0;
#X connect 47 0 48 0;
#X connect 47 1 49 0;
#X connect 48 0 46 0;
#X connect 50 0 51 0;
#X connect 50 1 52 0;
#X connect 50 2 53 0;
#X connect 50 3 54 0;
#X connect 51 0 46 0;
#X connect 55 0 30 0;
#X connect 56 0 59 0;
#X connect 56 1 60 0;
#X connect 56 2 58 0;
#X connect 58 0 57 0;
#X connect 59 0 46 0;
#X restore 22 436 pd extrovert-midifile-reader;
#N canvas 579 10 604 410 extrovert-midifile-writer 1;
#X obj 125 57 list trim;
#X obj 125 131 symbol;
#X obj 125 157 pack s s;
#X msg 170 131 symbol \$1.mid;
#X obj 125 106 t b f;
#X obj 309 106 list trim;
#X obj 125 33 r extrovert-midiwrite-commands;
#X obj 263 222 midifile;
#X msg 241 183 flush;
#X obj 125 81 route FILENUM DIRNAME SAVE NEXTTICK MSG;
#X msg 125 183 write \$1/\$2 0 24;
#X connect 0 0 9 0;
#X connect 1 0 2 0;
#X connect 2 0 10 0;
#X connect 3 0 2 1;
#X connect 4 0 1 0;
#X connect 4 1 3 0;
#X connect 5 0 7 0;
#X connect 6 0 0 0;
#X connect 8 0 7 0;
#X connect 9 0 4 0;
#X connect 9 1 1 1;
#X connect 9 2 8 0;
#X connect 9 3 7 0;
#X connect 9 4 5 0;
#X connect 10 0 7 0;
#X restore 22 455 pd extrovert-midifile-writer;
#N canvas 135 10 404 481 extrovert-midi-clock 1;
#X obj 101 172 r extrovert-clock-type;
#X obj 135 223 == 1;
#X obj 56 285 spigot 0;
#X obj 135 285 spigot 0;
#X obj 56 122 metro 4;
#X obj 56 33 r extrovert-metro-command;
#X obj 95 79 r extrovert-metro-speed;
#X obj 56 56 list trim;
#X obj 180 223 midirealtimein;
#X text 62 300 master;
#X text 141 300 slave;
#X obj 56 381 s extrovert-tempo-tick;
#X obj 101 223 != 1;
#X text 141 310 or thru;
#X text 62 310 or none;
#X text 272 223 MIDI CLOCK IN;
#X text 107 121 global tick metronome;
#X connect 0 0 1 0;
#X connect 0 0 12 0;
#X connect 1 0 3 1;
#X connect 2 0 11 0;
#X connect 3 0 11 0;
#X connect 4 0 2 0;
#X connect 5 0 7 0;
#X connect 6 0 4 1;
#X connect 7 0 4 0;
#X connect 8 0 3 0;
#X connect 12 0 2 1;
#X restore 22 398 pd extrovert-midi-clock;
#X text 23 14 EXTROVERT;
#X text 23 114 https://github.com/strangewarp/extrovert;
#X text 23 74 If you are new to this program \,;
#X text 23 84 please peruse the README.TXT.;
#X text 23 104 Additional information can be found at;
#X text 23 34 A MIDI beatslicing sequencer for the Monome \,;
#X text 23 124 http://breck.us/extrovert;
#X text 23 44 with an integrated sequence editor \,;
#X text 23 54 and cross-compatible with most MIDI editors.;
#N canvas 130 181 681 463 extrovert-midi-out 1;
#X obj 30 33 r extrovert-midiout-note;
#X obj 30 79 noteout;
#X obj 30 56 list trim;
#X obj 210 56 list trim;
#X obj 210 159 pgmout;
#X obj 210 136 list trim;
#X obj 210 33 r extrovert-midiout-control;
#X obj 210 113 r extrovert-midiout-program;
#X obj 210 79 ctlout;
#X obj 80 218 r extrovert-examplenote;
#X obj 80 372 noteout;
#X obj 80 243 list trim;
#X obj 30 136 list trim;
#X obj 30 113 r extrovert-midiout-poly;
#X obj 30 159 polytouchout;
#X obj 400 56 list trim;
#X obj 400 136 list trim;
#X obj 400 33 r extrovert-midiout-press;
#X obj 400 113 r extrovert-midiout-bend;
#X obj 400 79 touchout;
#X obj 400 159 bendout;
#X obj 104 331 pack f 0 f;
#X obj 104 284 pipe 40 0 0 250;
#X connect 0 0 2 0;
#X connect 2 0 1 0;
#X connect 3 0 8 0;
#X connect 5 0 4 0;
#X connect 6 0 3 0;
#X connect 7 0 5 0;
#X connect 9 0 11 0;
#X connect 11 0 10 0;
#X connect 11 0 22 0;
#X connect 12 0 14 0;
#X connect 13 0 12 0;
#X connect 15 0 19 0;
#X connect 16 0 20 0;
#X connect 17 0 15 0;
#X connect 18 0 16 0;
#X connect 21 0 10 0;
#X connect 22 0 21 0;
#X connect 22 2 21 2;
#X restore 22 417 pd extrovert-midi-out;
#N canvas 369 34 696 521 extrovert-monome 1;
#X msg 34 64 port \$1;
#X obj 34 86 udpreceive 8000;
#X obj 34 108 unpackOSC;
#X obj 34 130 pipelist;
#X obj 323 375 udpsend;
#X msg 333 348 connect 127.0.0.1 \$1;
#X obj 323 250 packOSC;
#X obj 368 97 == 0;
#X obj 323 121 spigot 0;
#X obj 336 196 spigot 0;
#X obj 381 172 == 1;
#X obj 34 188 routeOSC /press /grid/key /adc;
#X obj 34 42 r extrovert-osc-in-port;
#X obj 34 152 routeOSC /extrovert;
#X obj 323 42 r extrovert-osc-out;
#X obj 381 67 r extrovert-osc-type;
#X obj 368 296 r extrovert-osc-out-port;
#X msg 323 147 send /extrovert/led \$1 \$2 \$3;
#X msg 336 220 send /extrovert/grid/led/set \$1 \$2 \$3;
#X obj 34 264 s extrovert-key;
#X obj 152 264 s extrovert-adc;
#X connect 0 0 1 0;
#X connect 1 0 2 0;
#X connect 2 0 3 0;
#X connect 3 0 13 0;
#X connect 5 0 4 0;
#X connect 6 0 4 0;
#X connect 7 0 8 1;
#X connect 8 0 17 0;
#X connect 9 0 18 0;
#X connect 10 0 9 1;
#X connect 11 0 19 0;
#X connect 11 1 19 0;
#X connect 11 2 20 0;
#X connect 12 0 0 0;
#X connect 13 0 11 0;
#X connect 14 0 9 0;
#X connect 14 0 8 0;
#X connect 15 0 7 0;
#X connect 15 0 10 0;
#X connect 16 0 5 0;
#X connect 17 0 6 0;
#X connect 18 0 6 0;
#X restore 22 379 pd extrovert-monome;
