#N canvas 672 94 619 495 10;
#X declare -lib mrpeach;
#X obj 22 62 import mrpeach;
#N canvas 192 0 1163 709 extrovert-gui 1;
#X restore 22 162 pd extrovert-gui;
#N canvas 100 73 676 526 extrovert-gui-sender 0;
#X msg 66 154 vis 1 \, clear;
#X obj 53 56 list trim;
#X text 69 139 Clear old GUI;
#X msg 327 86 myCanvas \, clear;
#X obj 63 277 unpack s f f f f f f;
#X obj 99 362 f;
#X obj 144 362 f;
#X obj 55 449 s;
#X msg 99 411 color \$1 \$2;
#X obj 99 386 pack 0 0;
#X obj 31 312 t b b s;
#X msg 280 117 obj 1 1 cnv 15 200 100 myCanvas myCanvasR Canvas_Demo
20 12 2 14 -526347 20;
#X text 297 152 TESTING CODE TESTING CODE REMOVE ME AAAA;
#X obj 53 33 r extrovert-gui-object;
#X text 52 15 Receive GUI objects sent by extrovert-gui-generator;
#X obj 66 109 r extrovert-gui-bang;
#X obj 53 184 s pd-extrovert-gui;
#X obj 63 250 r extrovert-color-out;
#X obj 82 312 extrovert-makecolor;
#X obj 207 312 extrovert-makecolor;
#X connect 0 0 16 0;
#X connect 1 0 16 0;
#X connect 4 0 10 0;
#X connect 4 1 18 0;
#X connect 4 2 18 1;
#X connect 4 3 18 2;
#X connect 4 4 19 0;
#X connect 4 5 19 1;
#X connect 4 6 19 2;
#X connect 5 0 9 0;
#X connect 6 0 9 1;
#X connect 8 0 7 0;
#X connect 9 0 8 0;
#X connect 10 0 5 0;
#X connect 10 1 6 0;
#X connect 10 2 7 1;
#X connect 13 0 1 0;
#X connect 15 0 0 0;
#X connect 17 0 4 0;
#X connect 18 0 5 1;
#X connect 19 0 6 1;
#X restore 22 181 pd extrovert-gui-sender;
#N canvas 327 0 639 709 extrovert-lua-holder 0;
#X obj 357 185 r extrovert-midiread-results;
#N canvas 210 207 450 408 extrovert-clock-in 0;
#X obj 125 18 midirealtimein;
#X obj 183 161 + 1;
#X obj 152 161 f 0;
#X obj 183 184 moses 96;
#X obj 228 207 t b b;
#X msg 305 125 0;
#X obj 152 78 route 248 250 252;
#X obj 125 48 t f f;
#X obj 125 309 outlet;
#X obj 228 309 outlet;
#X connect 0 0 7 0;
#X connect 1 0 3 0;
#X connect 2 0 1 0;
#X connect 3 0 2 1;
#X connect 3 1 4 0;
#X connect 4 0 9 0;
#X connect 4 1 5 0;
#X connect 5 0 2 1;
#X connect 6 0 2 0;
#X connect 6 1 5 0;
#X connect 7 0 8 0;
#X connect 7 1 6 0;
#X restore 312 207 pd extrovert-clock-in;
#X obj 246 325 extrovert-sequencer;
#X obj 14 31 keyname;
#X symbolatom 53 54 10 0 0 0 - - -;
#X floatatom 14 54 3 0 0 0 - - -;
#X obj 14 76 pack f s;
#X connect 0 0 2 5;
#X connect 1 0 2 3;
#X connect 1 1 2 4;
#X connect 3 0 5 0;
#X connect 3 1 4 0;
#X connect 4 0 6 1;
#X connect 5 0 6 0;
#X connect 6 0 2 0;
#X restore 22 226 pd extrovert-lua-holder;
#N canvas 44 2 1207 684 extrovert-midifile-reader 1;
#X obj 213 151 midifile;
#X msg 81 110 track -1;
#X msg 235 350 list TICK \$1;
#X msg 278 375 list FILE_END;
#X msg 237 110 bang;
#X obj 144 229 list length;
#X obj 99 194 t l l;
#X obj 117 340 list append 0;
#X obj 177 255 == 2;
#X obj 99 293 spigot 0;
#X msg 99 375 list COMMAND \$1 \$2 \$3;
#X obj 521 -4 str join .mid;
#X obj 443 -4 symbol;
#X obj 494 -34 t b s;
#X obj 443 20 str join /;
#X obj 476 44 str join;
#X obj 476 69 str to_symbol;
#X obj 476 93 t b s;
#X obj 91 35 symbol;
#X obj 81 8 t b f;
#X text 455 115 alternate filename-join code;
#X obj 117 316 spigot 0;
#X obj 144 255 != 2;
#X text 28 403 noteoffs have 0 as 3rd byte...;
#X text 20 425 convert to proper noteoffs in Lua;
#X obj 81 -40 r extrovert-midiread-commands;
#X obj 81 -16 route FILENUM DIRNAME NEXTITEM;
#X obj 81 86 t b l;
#X msg 141 110 read \$1/\$2.mid;
#X obj 81 62 pack s f;
#X obj 235 415 s extrovert-midiread-results;
#X obj 731 211 route end time_sig microsec_per_quarternote key_sig
;
#X obj 278 188 route bang format tracks ticks_per_quarternote seq_num
name;
#X floatatom 336 211 3 0 0 0 - - -;
#X text 327 225 format;
#X floatatom 395 211 5 0 0 0 - - -;
#X text 390 225 tracks;
#X floatatom 453 211 5 0 0 0 - - -;
#X text 456 225 TPQ;
#X text 439 236 (auto 24);
#X floatatom 512 211 5 0 0 0 - - -;
#X text 507 225 seqnum;
#X obj 570 211 unpack 0 s;
#X floatatom 570 234 5 0 0 0 - - -;
#X obj 627 234 prepend set;
#X symbolatom 627 257 10 0 0 0 - - -;
#X msg 445 375 list NEXT_ITEM;
#X obj 721 238 unpack 0 0;
#X floatatom 721 261 5 0 0 0 - - -;
#X floatatom 755 261 7 0 0 0 - - -;
#X obj 806 238 unpack 0 0 0 0;
#X floatatom 806 261 3 0 0 1 / - -;
#X floatatom 837 261 3 0 0 1 - - -;
#X floatatom 860 261 5 0 0 1 clocks_per_click - -;
#X floatatom 887 281 5 0 0 1 32nds_per_quarternote - -;
#X msg 712 375 list MS_PER_QUARTER_NOTE;
#X obj 958 308 unpack 0 0 s;
#X symbolatom 1039 413 10 0 0 0 key - -;
#X obj 1039 387 prepend set;
#X floatatom 958 337 5 0 0 1 +sharps/-flats - -;
#X obj 998 366 tgl 15 0 empty empty minor 17 7 0 10 -262144 -1 -1 0
1;
#X connect 0 0 6 0;
#X connect 0 1 2 0;
#X connect 0 2 32 0;
#X connect 1 0 0 0;
#X connect 2 0 30 0;
#X connect 3 0 30 0;
#X connect 4 0 0 0;
#X connect 5 0 8 0;
#X connect 5 0 22 0;
#X connect 6 0 9 0;
#X connect 6 0 21 0;
#X connect 6 1 5 0;
#X connect 7 0 10 0;
#X connect 8 0 21 1;
#X connect 9 0 10 0;
#X connect 10 0 30 0;
#X connect 11 0 15 1;
#X connect 12 0 14 0;
#X connect 13 0 12 0;
#X connect 13 1 11 0;
#X connect 14 0 15 0;
#X connect 15 0 16 0;
#X connect 16 0 17 0;
#X connect 18 0 29 0;
#X connect 19 0 18 0;
#X connect 19 1 29 1;
#X connect 21 0 7 0;
#X connect 22 0 9 1;
#X connect 25 0 26 0;
#X connect 26 0 19 0;
#X connect 26 1 18 1;
#X connect 26 2 4 0;
#X connect 27 0 1 0;
#X connect 27 1 28 0;
#X connect 28 0 0 0;
#X connect 29 0 27 0;
#X connect 31 0 47 0;
#X connect 31 1 50 0;
#X connect 31 2 55 0;
#X connect 31 3 56 0;
#X connect 32 0 3 0;
#X connect 32 1 33 0;
#X connect 32 2 35 0;
#X connect 32 3 37 0;
#X connect 32 4 40 0;
#X connect 32 5 42 0;
#X connect 32 6 31 0;
#X connect 33 0 46 0;
#X connect 35 0 46 0;
#X connect 37 0 46 0;
#X connect 40 0 46 0;
#X connect 42 0 43 0;
#X connect 42 1 44 0;
#X connect 43 0 46 0;
#X connect 44 0 45 0;
#X connect 46 0 30 0;
#X connect 47 0 48 0;
#X connect 47 1 49 0;
#X connect 48 0 46 0;
#X connect 50 0 51 0;
#X connect 50 1 52 0;
#X connect 50 2 53 0;
#X connect 50 3 54 0;
#X connect 51 0 46 0;
#X connect 55 0 30 0;
#X connect 56 0 59 0;
#X connect 56 1 60 0;
#X connect 56 2 58 0;
#X connect 58 0 57 0;
#X connect 59 0 46 0;
#X restore 22 295 pd extrovert-midifile-reader;
#N canvas 579 10 604 410 extrovert-midifile-writer 1;
#X obj 125 57 list trim;
#X obj 125 131 symbol;
#X obj 125 157 pack s s;
#X msg 170 131 symbol \$1.mid;
#X obj 125 106 t b f;
#X obj 309 106 list trim;
#X obj 125 33 r extrovert-midiwrite-commands;
#X obj 263 222 midifile;
#X msg 241 183 flush;
#X obj 125 81 route FILENUM DIRNAME SAVE NEXTTICK MSG;
#X msg 125 183 write \$1/\$2 0 24;
#X connect 0 0 9 0;
#X connect 1 0 2 0;
#X connect 2 0 10 0;
#X connect 3 0 2 1;
#X connect 4 0 1 0;
#X connect 4 1 3 0;
#X connect 5 0 7 0;
#X connect 6 0 0 0;
#X connect 8 0 7 0;
#X connect 9 0 4 0;
#X connect 9 1 1 1;
#X connect 9 2 8 0;
#X connect 9 3 7 0;
#X connect 9 4 5 0;
#X connect 10 0 7 0;
#X restore 22 314 pd extrovert-midifile-writer;
#N canvas 481 65 497 447 extrovert-midi-in-out 1;
#X restore 23 357 pd extrovert-midi-in-out;
